<?xml version="1.0" encoding="UTF-8"?>
<svg xmlns="http://www.w3.org/2000/svg" version="1.1" viewBox="0 0 842 153">
  <defs>
    <style>
      .cls-1 {
        fill: #ff00db;
      }

      .cls-1, .cls-2, .cls-3 {
        display: none;
      }

      .cls-2 {
        fill: #00f9ff;
      }

      .cls-4 {
        fill: #0f9;
      }

      .cls-3 {
        fill: #7cfc00;
      }
    </style>
  </defs>
  <!-- Generator: Adobe Illustrator 28.7.1, SVG Export Plug-In . SVG Version: 1.2.0 Build 142)  -->
  <g>
    <g id="Layer_1">
      <g id="Layer_1-2" data-name="Layer_1">
        <g>
          <g id="Design">
            <rect class="cls-3" x="-810.5" y="-149.1" width="213.9" height="38.8"/>
            <rect class="cls-2" x="-612" y="-137" width="15" height="14.9"/>
            <rect class="cls-1" x="-612" y="-122.9" width="15" height=".8"/>
            <rect class="cls-1" x="-612" y="-137" width="15" height=".8"/>
          </g>
          <g id="Artwork">
            <g>
              <rect class="cls-4" y="0" width="842" height="153"/>
              <g>
                <path d="M61.5,103l-49.6-20v-12l49.6-20v9.9l-40,15.3v1.4l40,15.3v10.1Z"/>
                <path d="M105.5,107.9c-6.4,0-12-1.1-16.9-3.4s-8.7-5.6-11.4-9.8c-2.8-4.2-4.1-9.4-4.1-15.3v-3.3h15.3v3.3c0,5,1.5,8.7,4.6,11.2s7.2,3.7,12.5,3.7,9.3-1.1,12-3.2c2.6-2.1,3.9-4.8,3.9-8.2s-.7-4.1-1.9-5.6c-1.3-1.4-3.2-2.6-5.7-3.5s-5.5-1.8-9-2.5l-2.7-.6c-5.7-1.3-10.5-2.8-14.6-4.8s-7.2-4.5-9.3-7.6c-2.2-3.2-3.2-7.2-3.2-12.3s1.2-9.4,3.6-12.9c2.4-3.6,5.8-6.3,10.2-8.3s9.5-2.9,15.4-2.9,11.2,1,15.8,3,8.2,5,10.9,9c2.6,4,4,9,4,14.9v3.5h-15.3v-3.5c0-3.2-.6-5.7-1.8-7.6s-3-3.3-5.2-4.2c-2.3-.9-5-1.4-8.2-1.4-4.7,0-8.2.9-10.4,2.7s-3.4,4.2-3.4,7.3.5,3.8,1.6,5.2,2.7,2.6,4.8,3.5c2.1,1,4.8,1.8,8.2,2.5l2.7.6c5.9,1.3,11,2.9,15.4,4.8s7.8,4.6,10.2,7.8,3.7,7.4,3.7,12.4-1.3,9.5-3.8,13.3c-2.6,3.8-6.2,6.8-10.9,9s-10.2,3.2-16.6,3.2h-.4Z"/>
                <path d="M167.7,107.9c-4.7,0-9.1-1.2-13.1-3.5s-7.2-5.7-9.7-10.2c-2.4-4.5-3.7-9.9-3.7-16.3v-1.9c0-6.4,1.2-11.8,3.7-16.3,2.4-4.5,5.7-7.9,9.7-10.2s8.4-3.5,13.1-3.5,9.4.9,12.2,2.7,4.9,3.8,6.2,6.1h2.1v-7.1h14.6v42.7c0,2.4,1.1,3.5,3.3,3.5h4.7v12.3h-11.8c-2.8,0-5.2-.8-7-2.4s-2.8-3.7-2.8-6.5h0c0,0-2.1,0-2.1,0-1.3,2.9-3.5,5.4-6.4,7.5s-7.3,3.1-13.1,3.1h.1ZM172.1,95c4.6,0,8.5-1.5,11.5-4.4s4.5-7.3,4.5-12.9v-1.2c0-5.7-1.5-10-4.6-12.9-3.1-3-6.9-4.4-11.4-4.4s-8.4,1.5-11.4,4.4c-3.1,2.9-4.6,7.3-4.6,12.9v1.2c0,5.7,1.5,10,4.6,12.9s6.9,4.4,11.4,4.4h0Z"/>
                <path d="M216.6,106.3v-58.6h14.6v6.4h2.1c1-2,2.7-3.7,5.1-5.1s5.5-2.2,9.3-2.2,7.5.8,10,2.4c2.5,1.6,4.5,3.7,5.8,6.3h2.1c1.3-2.5,3.2-4.6,5.7-6.3,2.4-1.7,5.9-2.5,10.4-2.5s6.9.8,9.9,2.3,5.3,3.9,7.1,7,2.7,7,2.7,11.8v38.5h-14.9v-37.4c0-3.2-.8-5.7-2.5-7.3-1.6-1.6-4-2.4-7-2.4s-6,1.1-7.9,3.2c-1.9,2.1-2.8,5.2-2.8,9.3v34.6h-14.9v-37.4c0-3.2-.8-5.7-2.5-7.3s-4-2.4-7-2.4-6,1.1-7.9,3.2c-1.9,2.1-2.8,5.2-2.8,9.3v34.6h-14.9.3Z"/>
                <path d="M335.2,107.9c-7.6,0-13.9-1.7-18.8-5s-7.8-8-8.9-14.2l13.7-3.5c.5,2.8,1.5,4.9,2.8,6.5s2.9,2.7,4.8,3.4,4,1,6.3,1c3.5,0,6-.6,7.7-1.8s2.5-2.7,2.5-4.6-.8-3.2-2.4-4.2-4.1-1.8-7.6-2.4l-3.3-.6c-4.1-.8-7.8-1.9-11.2-3.2-3.4-1.4-6.1-3.3-8.1-5.7s-3.1-5.6-3.1-9.4c0-5.8,2.1-10.3,6.4-13.4s9.8-4.7,16.8-4.7,12,1.5,16.3,4.4,7.2,6.7,8.5,11.5l-13.8,4.2c-.6-3-1.9-5.1-3.8-6.4-1.9-1.3-4.3-1.9-7.1-1.9s-5,.5-6.5,1.5-2.2,2.3-2.2,4.1.8,3.3,2.4,4.2c1.6.9,3.7,1.6,6.4,2.1l3.3.6c4.4.8,8.4,1.8,12,3.1,3.6,1.3,6.4,3.2,8.5,5.6s3.1,5.7,3.1,9.7c0,6.1-2.2,10.9-6.7,14.2-4.5,3.3-10.4,5-17.9,5h0Z"/>
                <path d="M394.6,107.9c-5.8,0-11.1-1.2-15.7-3.5s-8.3-5.8-11-10.3-4-9.9-4-16.2v-1.9c0-6.3,1.3-11.7,4-16.2,2.7-4.5,6.3-7.9,11-10.3s9.9-3.5,15.7-3.5,11.1,1.2,15.7,3.5,8.3,5.8,11,10.3c2.7,4.5,4,9.9,4,16.2v1.9c0,6.3-1.3,11.7-4,16.2s-6.3,7.9-11,10.3-9.9,3.5-15.7,3.5ZM394.6,94.7c4.6,0,8.3-1.5,11.3-4.4s4.5-7.2,4.5-12.7v-1.2c0-5.5-1.5-9.7-4.4-12.7-3-3-6.8-4.4-11.4-4.4s-8.3,1.5-11.3,4.4c-3,2.9-4.5,7.2-4.5,12.7v1.2c0,5.5,1.5,9.7,4.5,12.7s6.8,4.4,11.3,4.4h0Z"/>
                <path d="M432.8,106.3v-58.6h14.6v7.7h2.1c1-2,2.7-4,5.3-5.8,2.6-1.8,6.5-2.8,11.8-2.8s8.6,1,12,3.1,6.1,5,8,8.6,2.8,7.9,2.8,12.8v34.9h-14.9v-33.8c0-4.4-1.1-7.7-3.2-9.9-2.2-2.2-5.2-3.3-9.3-3.3s-8.1,1.5-10.6,4.5c-2.5,3-3.8,7.3-3.8,12.7v29.8h-14.9.1Z"/>
                <path d="M496.4,114.9v-8.6h55v8.6h-55Z"/>
                <path d="M558.2,106.3V23.6h15.6v68.5h37.8v14.2h-53.4,0Z"/>
                <path d="M640.9,107.9c-4.7,0-9.1-1.2-13.1-3.5s-7.2-5.7-9.7-10.2c-2.4-4.5-3.7-9.9-3.7-16.3v-1.9c0-6.4,1.2-11.8,3.7-16.3,2.4-4.5,5.7-7.9,9.7-10.2s8.4-3.5,13-3.5,9.4.9,12.2,2.7,4.9,3.8,6.2,6.1h2.1v-7.1h14.6v42.7c0,2.4,1.1,3.5,3.3,3.5h4.7v12.3h-11.8c-2.8,0-5.2-.8-7-2.4s-2.8-3.7-2.8-6.5h0c0,0-2.1,0-2.1,0-1.3,2.9-3.5,5.4-6.4,7.5s-7.3,3.1-13,3.1h0ZM645.4,95c4.6,0,8.5-1.5,11.5-4.4s4.5-7.3,4.5-12.9v-1.2c0-5.7-1.5-10-4.6-12.9-3.1-3-6.9-4.4-11.5-4.4s-8.4,1.5-11.5,4.4-4.6,7.3-4.6,12.9v1.2c0,5.7,1.5,10,4.6,12.9s6.9,4.4,11.5,4.4h0Z"/>
                <path d="M693.4,106.3l-8.3-58.6h14.8l5.2,48.5h2.1l7.6-48.5h23.8l7.6,48.5h2.1l5.2-48.5h14.8l-8.3,58.6h-24.7l-7.6-48.5h-2.1l-7.6,48.5h-24.7.1Z"/>
                <path d="M780.5,103v-9.9l40.2-15.3v-1.4l-40.2-15.3v-9.9l49.6,20v12l-49.6,20v-.2Z"/>
              </g>
            </g>
          </g>
        </g>
      </g>
    </g>
  </g>
</svg>